HIERARCHY
ROOT Hips
{
	OFFSET 0.000000 0.000000 0.000000 
	CHANNELS 6 Xposition Yposition Zposition Yrotation Zrotation Xrotation 
	JOINT Lumbar
	{
		OFFSET 0.000000 0.000000 0.000000 
		CHANNELS 3 Zrotation Xrotation Yrotation
		JOINT Neck
		{
			OFFSET 0.000000 0.445665 0.000000 
			CHANNELS 3 Zrotation Xrotation Yrotation
			End Site
			{
				OFFSET 0.000000 0.227535 0.000000 
			}
		}
		JOINT RightShoulder
		{
			OFFSET 0.019635 0.377685 0.194865 
			CHANNELS 3 Zrotation Xrotation Yrotation
			JOINT RightElbow
			{
				OFFSET 0.000000 -0.243375 0.000000 
				CHANNELS 2 Zrotation Yrotation
				JOINT RightWrist
				{
					OFFSET 0.000000 -0.264825 0.000000 
					CHANNELS 2 Zrotation Xrotation
					End Site
					{
						OFFSET 0.006600 -0.176220 0.000990 
					}
				}
			}
		}
		JOINT LeftShoulder
		{
			OFFSET 0.019635 0.377685 -0.194865 
			CHANNELS 3 Zrotation Xrotation Yrotation
			JOINT LeftElbow
			{
				OFFSET 0.000000 -0.243375 0.000000 
				CHANNELS 2 Zrotation Yrotation
				JOINT LeftWrist
				{
					OFFSET 0.000000 -0.264825 0.000000 
					CHANNELS 2 Zrotation Xrotation
					End Site
					{
						OFFSET 0.006600 -0.176220 -0.000990 
					}
				}
			}
		}
	}
	JOINT RightHip
	{
		OFFSET 0.052140 -0.069960 0.075570 
		CHANNELS 3 Zrotation Xrotation Yrotation
		JOINT RightKnee
		{
			OFFSET 0.000000 -0.402270 0.000000 
			CHANNELS 1 Zrotation
			JOINT RightAnkle
			{
				OFFSET 0.000000 -0.404085 0.000000 
				CHANNELS 3 Zrotation Xrotation Yrotation
				End Site
				{
					OFFSET 0.204105 -0.089430 0.008415 
				}
			}
		}
	}
	JOINT LeftHip
	{
		OFFSET 0.052140 -0.069960 -0.075570 
		CHANNELS 3 Zrotation Xrotation Yrotation
		JOINT LeftKnee
		{
			OFFSET 0.000000 -0.402270 0.000000 
			CHANNELS 1 Zrotation
			JOINT LeftAnkle
			{
				OFFSET 0.000000 -0.404085 0.000000 
				CHANNELS 3 Zrotation Xrotation Yrotation
				End Site
				{
					OFFSET 0.204105 -0.089430 -0.008415 
				}
			}
		}
	}
}
MOTION
Frames: 16
Frame Time: 0.02
0.79819 0.09903 0.56998 152.39251 -26.64855 -11.60144 23.13499 2.94191 -26.77377 -7.63128 8.55861 -2.11994 19.97165 -43.29253 12.28634 122.69363 96.0388 -24.28737 -5.5273 55.19505 15.4129 -45.05491 93.83974 -109.57103 -30.30001 7.26944 41.73619 -5.61986 -13.66784 -16.14484 -13.54057 -2.52211 -3.7987 26.78328 0.1015 18.58332 -35.53644 -7.24247 3.4663 3.95361
0.79953 0.09992 0.56633 150.72748 -26.25256 -11.81738 23.32906 2.9788 -26.55743 -7.69001 8.47927 -2.11994 19.54919 -42.92157 12.12169 122.8531 95.84736 -24.18835 -5.52795 54.65189 14.89305 -44.76362 94.03525 -107.10394 -28.73601 7.01883 41.68538 -6.28634 -11.42833 -18.91774 -13.19786 -3.06678 -4.06883 26.71837 0.39972 18.64582 -35.70844 -7.34273 3.55336 4.00286
0.80057 0.10044 0.56201 149.11467 -26.25909 -12.13965 23.94156 3.09377 -26.36242 -7.73156 8.45239 -2.11994 18.98091 -42.42451 11.90029 123.07826 95.66632 -24.09542 -5.54031 53.84658 14.40265 -44.45538 94.34488 -104.0188 -26.78938 6.7048 42.04333 -6.79955 -9.7658 -21.5689 -13.17522 -3.06465 -4.06036 27.18202 0.8291 18.47623 -36.17809 -7.43692 3.64066 4.05203
0.80176 0.10114 0.55794 147.47857 -26.06873 -12.40718 24.34552 3.16948 -26.14775 -7.77925 8.40517 -2.11994 18.4797 -41.97888 11.71007 123.26865 95.49784 -24.00333 -5.54846 53.16937 13.91616 -44.16857 94.60203 -101.38303 -25.1184 6.43746 42.19033 -7.38882 -7.90672 -24.21219 -13.00692 -3.31375 -4.18069 27.38236 1.20266 18.42124 -36.50711 -7.53425 3.72623 4.1004
0.80287 0.10176 0.5541 145.85225 -25.92388 -12.69443 24.81697 3.25849 -25.97284 -7.83452 8.34642 -2.11994 17.96262 -41.54727 11.50023 123.48013 95.26599 -23.89847 -5.55299 52.41866 13.3514 -43.81099 94.8707 -98.05327 -23.02289 6.09724 42.42978 -7.96835 -5.74818 -27.14973 -12.83433 -3.53792 -4.28639 27.66173 1.55965 18.33137 -36.85825 -7.62965 3.81778 4.15185
0.8041 0.10248 0.5496 144.21262 -25.78545 -12.96827 25.25113 3.33899 -25.72023 -7.86941 8.32244 -2.11994 17.45104 -41.06018 11.3183 123.66257 95.17543 -23.82717 -5.56868 51.77179 12.95796 -43.60023 95.13867 -95.99477 -21.70611 5.89058 42.58218 -8.52112 -4.35569 -29.43506 -12.74919 -3.68847 -4.3581 27.90946 1.98154 18.25469 -37.23383 -7.72845 3.89739 4.19714
0.80561 0.10354 0.54353 142.53491 -25.56113 -13.18399 25.48004 3.38129 -25.25957 -7.85558 8.38661 -2.11994 16.96462 -40.45742 11.20692 123.75512 95.33654 -23.76386 -5.5963 51.48612 13.03881 -43.81776 95.38038 -97.86422 -22.79618 6.0964 42.35577 -9.08631 -4.97921 -29.94722 -12.82041 -3.77936 -4.40852 27.93625 2.56345 18.30883 -37.60843 -7.82942 3.94222 4.22401
0.80728 0.10471 0.53679 140.83899 -25.33241 -13.38261 25.65857 3.41191 -24.71925 -7.82106 8.48224 -2.11994 16.49668 -39.80421 11.12922 123.81459 95.65746 -23.74583 -5.63688 51.3184 13.28989 -44.18237 95.61488 -100.99174 -24.65805 6.43418 42.0361 -9.61865 -6.35017 -29.80402 -12.97017 -3.81516 -4.4343 27.91606 3.20434 18.37826 -37.99647 -7.93546 3.97537 4.24494
0.80894 0.10584 0.53028 139.14154 -25.11061 -13.58714 25.86128 3.44545 -24.20689 -7.79396 8.56032 -2.11994 16.03633 -39.17049 11.04805 123.8856 95.99667 -23.76322 -5.68236 51.09368 13.45893 -44.46919 95.84999 -103.36172 -26.05608 6.69226 41.78606 -10.13257 -7.35453 -29.95776 -13.08952 -3.87181 -4.46935 27.92313 3.80958 18.41462 -38.37587 -8.04494 4.01523 4.26962
0.81031 0.10692 0.52405 137.48485 -24.88085 -13.80368 26.07221 3.49184 -23.72588 -7.77516 8.65566 -2.11994 15.49615 -38.54396 10.91278 123.97542 95.97041 -23.55439 -5.68488 50.86883 13.65048 -44.80065 96.10335 -106.46911 -27.90178 7.02884 41.43588 -10.78335 -8.49003 -30.11001 -13.19905 -3.92702 -4.50293 27.9245 4.45525 18.54877 -38.77716 -8.13043 4.04955 4.29005
0.81232 0.10812 0.51708 135.74153 -24.66265 -13.98906 26.24959 3.50756 -23.16559 -7.73371 8.71973 -2.11994 15.13744 -37.89558 10.90174 124.0151 96.721 -23.81509 -5.77712 50.68163 13.83291 -45.07526 96.31191 -108.37921 -29.02372 7.23731 41.26582 -11.14172 -9.52519 -30.1131 -13.34177 -3.97905 -4.5371 27.91833 5.03086 18.49139 -39.13114 -8.2666 4.09217 4.31768
0.81603 0.10962 0.50836 133.73514 -24.46539 -14.0985 26.3371 3.44235 -22.36204 -7.64093 8.70688 -2.11994 15.20286 -37.1713 11.20203 123.94245 99.7639 -25.46503 -6.13646 50.52377 13.96777 -45.14883 96.42756 -106.40102 -27.78255 7.03189 41.62164 -10.71386 -10.07681 -29.8471 -13.57017 -4.04115 -4.58258 27.91342 5.38265 17.85437 -39.35995 -8.54664 4.16441 4.36886
0.82038 0.11122 0.49891 131.64766 -24.28003 -14.17553 26.39236 3.34607 -21.4901 -7.52522 8.65778 -2.11994 15.4661 -36.43289 11.63116 123.81623 103.54624 -27.56546 -6.58117 50.41056 14.08349 -45.16124 96.49199 -103.22561 -25.81888 6.69821 42.15768 -9.99144 -10.50412 -29.457 -13.82471 -4.1037 -4.63019 27.89807 5.66454 17.03346 -39.53843 -8.87676 4.24463 4.42706
0.82445 0.11276 0.48972 129.61504 -24.09526 -14.26304 26.46644 3.26316 -20.67738 -7.41582 8.61407 -2.11994 15.68511 -35.71967 12.01657 123.70312 106.87023 -29.39287 -6.97222 50.30724 14.19572 -45.20775 96.56068 -100.78551 -24.30605 6.44222 42.60697 -9.39558 -10.99984 -29.13634 -14.05766 -4.16538 -4.6759 27.87777 5.98778 16.32945 -39.73163 -9.18035 4.31878 4.48065
0.82844 0.11435 0.4808 127.50395 -23.88577 -14.36807 26.52109 3.18338 -19.74075 -7.32218 8.61922 -2.11994 15.70554 -34.92446 12.33918 123.63865 110.72415 -31.51446 -7.42734 50.07686 14.36693 -45.23487 96.71098 -97.5949 -22.31199 6.11012 43.07861 -8.82805 -11.46806 -28.73944 -14.33658 -4.22775 -4.72468 27.89661 6.27134 15.48738 -39.95638 -9.49922 4.40313 4.54015
0.83276 0.11587 0.47114 125.53959 -23.72997 -14.42898 26.60962 3.08945 -19.04995 -7.19161 8.51239 -2.11994 16.19426 -34.29846 12.82441 123.45765 113.63783 -33.12433 -7.76802 50.12468 14.40657 -45.28326 96.67734 -95.65016 -21.12709 5.90281 43.54154 -8.1336 -11.95878 -28.4782 -14.52232 -4.28938 -4.76767 27.83263 6.62189 14.88618 -40.1077 -9.79911 4.4679 4.58895
